Coordinates
version=1
nRows=8
nColumns=27
inDegrees=yes

Units are S.I. units (second, meters, Newtons, ...)
If the header above contains a line with 'inDegrees', this indicates whether rotational values are in degrees (yes) or radians (no).

endheader
time	pelvis_rotation	pelvis_tilt	pelvis_list	pelvis_tx	pelvis_ty	pelvis_tz	hip_flexion_r	hip_adduction_r	hip_rotation_r	knee_angle_r	knee_rotation_r	knee_adduction_r	knee_angle_r_beta	ankle_angle_r	subtalar_angle_r	mtp_angle_r	hip_flexion_l	hip_adduction_l	hip_rotation_l	knee_angle_l	knee_rotation_l	knee_adduction_l	knee_angle_l_beta	ankle_angle_l	subtalar_angle_l	mtp_angle_l
      3.60000000	      3.76097064	    -16.89246288	     -4.50407902	      0.06484658	      0.82589170	     -1.14276808	     28.86204177	    -22.09579368	    -30.15526043	     25.01575789	      0.00000000	      1.30490058	      0.43660734	      0.25021281	      0.00000000	      0.00000000	     38.11504061	    -26.22441409	     -0.42437497	     24.71937954	      0.00000000	      5.76968105	      0.43143456	     -1.01452033	      0.00000000	      0.00000000
      3.60500000	      3.73061224	    -17.25092077	     -4.35352046	      0.06364200	      0.82555119	     -1.14286980	     29.61661060	    -22.39574114	    -29.92501162	     25.52671493	      0.00000000	      1.37701887	      0.44552522	      0.33044096	      0.00000000	      0.00000000	     38.65047015	    -26.07638280	     -0.38863383	     24.92262638	      0.00000000	      5.74504315	      0.43498189	     -1.05224387	      0.00000000	      0.00000000
      3.61000000	      3.16700705	    -17.63300367	     -3.96843138	      0.06229978	      0.82515260	     -1.14306105	     30.86824439	    -22.75690924	    -28.59660927	     26.19688807	      0.00000000	      1.11360597	      0.45722195	      0.48727670	      0.00000000	      0.00000000	     38.86224391	    -25.99966485	     -1.47134884	     25.09029007	      0.00000000	      5.26920780	      0.43790817	     -0.99361711	      0.00000000	      0.00000000
      3.61500000	      3.60082451	    -18.00838026	     -4.06086376	      0.06105222	      0.82484835	     -1.14307606	     31.23085788	    -22.95125505	    -29.27398419	     26.52724355	      0.00000000	      1.43061677	      0.46298774	      0.42619826	      0.00000000	      0.00000000	     39.75335347	    -25.82313011	     -0.42127967	     25.33640971	      0.00000000	      5.66043606	      0.44220377	     -1.14115210	      0.00000000	      0.00000000
      3.62000000	      3.56048119	    -18.45743544	     -3.84725661	      0.05955168	      0.82438494	     -1.14326565	     32.17885574	    -23.33388133	    -28.93840146	     27.13502931	      0.00000000	      1.49761317	      0.47359560	      0.51345435	      0.00000000	      0.00000000	     40.40541745	    -25.62186000	     -0.41408290	     25.58774342	      0.00000000	      5.63814196	      0.44659037	     -1.17989896	      0.00000000	      0.00000000
      3.62500000	      3.48294242	    -18.89540790	     -3.65829743	      0.05805275	      0.82394304	     -1.14340685	     33.12376847	    -23.65350969	    -28.50653830	     27.69952958	      0.00000000	      1.50882474	      0.48344799	      0.56464278	      0.00000000	      0.00000000	     41.02373598	    -25.46555714	     -0.46171790	     25.81595294	      0.00000000	      5.58873634	      0.45057338	     -1.22398319	      0.00000000	      0.00000000
      3.63000000	      2.84812529	    -19.37131662	     -3.02151891	      0.05640110	      0.82335177	     -1.14377817	     34.76239784	    -24.25396216	    -26.89997477	     28.62123590	      0.00000000	      1.30161238	      0.49953480	      0.78358491	      0.00000000	      0.00000000	     41.21764770	    -25.23467851	     -1.82197920	     25.96173760	      0.00000000	      5.09945126	      0.45311780	     -1.22022219	      0.00000000	      0.00000000
      3.63500000	      3.30526692	    -19.80094564	     -3.23205648	      0.05488771	      0.82295372	     -1.14374592	     35.14018090	    -24.34660190	    -27.58384079	     28.90502333	      0.00000000	      1.57731009	      0.50448783	      0.68692753	      0.00000000	      0.00000000	     42.29581119	    -25.13895497	     -0.64048627	     26.31178782	      0.00000000	      5.44921155	      0.45922733	     -1.31636543	      0.00000000	      0.00000000
